<svg xmlns="http://www.w3.org/2000/svg" xmlns:xlink="http://www.w3.org/1999/xlink" width="300" zoomAndPan="magnify" viewBox="0 0 224.87999 225" height="300" preserveAspectRatio="xMidYMid meet" version="1.0"><defs><clipPath id="id1"><path d="M 46 9.054688 L 166 9.054688 L 166 173 L 46 173 Z M 46 9.054688 " clip-rule="nonzero"/></clipPath><clipPath id="id2"><path d="M 81 73 L 219 73 L 219 215.945312 L 81 215.945312 Z M 81 73 " clip-rule="nonzero"/></clipPath></defs><g clip-path="url(#id1)"><path fill="#6c4eb0" d="M 76.664062 38.53125 C 84.6875 28.394531 99.796875 23.386719 110.09375 23.128906 C 138.96875 22.574219 151.007812 58.9375 151.9375 73.394531 L 165.304688 77.449219 C 162.226562 33.132812 134.964844 9.886719 108.878906 9.886719 C 84.417969 9.875 61.832031 27.847656 52.730469 54.199219 C 40.300781 89.332031 48.457031 123.109375 63.699219 150.140625 C 62.367188 151.898438 61.566406 154.996094 61.832031 157.964844 C 62.09375 166.078125 68.910156 172.832031 77.074219 172.832031 L 77.609375 172.832031 C 86.167969 172.566406 92.71875 165.410156 92.316406 156.886719 C 92.316406 148.773438 85.367188 142.039062 77.207031 142.039062 L 76.664062 142.039062 C 76.128906 142.039062 75.335938 142.039062 74.65625 142.296875 C 63.5625 123.378906 58.878906 103.101562 60.628906 81.230469 C 61.691406 64.738281 67.042969 50.417969 76.664062 38.53125 Z M 76.664062 38.53125 " fill-opacity="1" fill-rule="nonzero"/></g><path fill="#6c4eb0" d="M 12.234375 191.902344 C 21.195312 205.414062 39.515625 214.054688 59.566406 214.054688 C 64.910156 214.054688 70.535156 213.660156 76.011719 212.304688 C 110.78125 205.546875 137.125 184.46875 152.230469 153.398438 L 152.355469 153.121094 C 160.109375 152.441406 166.125 145.542969 165.734375 137.300781 C 165.324219 129.054688 158.640625 122.441406 150.492188 122.441406 L 149.945312 122.441406 C 141.53125 122.71875 134.972656 129.875 135.242188 138.398438 C 135.507812 142.714844 137.257812 146.230469 139.648438 148.792969 C 130.296875 167.175781 116.257812 180.679688 94.992188 192.039062 C 80.6875 199.597656 65.582031 202.441406 50.875 200.417969 C 38.578125 198.667969 28.957031 193.109375 23.066406 184.203125 C 14.25 170.683594 13.449219 156.101562 20.792969 141.511719 C 26.15625 130.972656 34.167969 123.269531 39.523438 119.476562 C 38.183594 115.972656 36.578125 110.027344 35.777344 105.574219 C -3.820312 134.210938 0.207031 173.386719 12.234375 191.902344 Z M 12.234375 191.902344 " fill-opacity="1" fill-rule="nonzero"/><g clip-path="url(#id2)"><path fill="#6c4eb0" d="M 213.316406 185.941406 C 221.328125 169.726562 220.667969 142.4375 200.207031 119.058594 L 200.082031 119.328125 C 179.367188 94.734375 148.875 81.222656 114.101562 81.222656 L 109.546875 81.222656 C 107.292969 76.226562 102.078125 73.109375 96.191406 73.109375 L 95.789062 73.109375 C 87.375 73.109375 80.8125 80.417969 81.089844 88.921875 C 81.359375 97.027344 88.175781 103.789062 96.332031 103.789062 L 96.992188 103.789062 C 103.015625 103.523438 108.226562 99.730469 110.359375 94.332031 L 115.3125 94.332031 C 135.917969 94.332031 155.425781 100.410156 173.21875 112.292969 C 186.847656 121.351562 196.617188 133.238281 202.097656 147.429688 C 206.898438 159.046875 206.640625 170.398438 201.695312 179.867188 C 194.074219 194.722656 181.234375 202.566406 164.261719 202.566406 C 153.5625 202.566406 143.136719 199.1875 137.785156 196.757812 C 134.582031 199.445312 129.226562 203.90625 125.34375 206.621094 C 137.105469 212.007812 149.011719 215.125 160.503906 215.125 C 186.578125 215.125 205.953125 200.273438 213.316406 185.941406 Z M 213.316406 185.941406 " fill-opacity="1" fill-rule="nonzero"/></g></svg>